<svg class="hide-on-progress camera-icon-complete" width="27" height="25" viewBox="0 0 27 25" fill="none" xmlns="http://www.w3.org/2000/svg">
<path fill-rule="evenodd" clip-rule="evenodd" d="M21.062 5.52737V5.52737C20.5594 5.52737 20.1039 5.23765 19.8897 4.78488C19.5029 3.96558 19.0111 2.91855 18.72 2.34854C18.2902 1.50094 17.5935 1.00775 16.6287 1.00101C16.6125 0.999663 10.3168 0.999663 10.3007 1.00101C9.33582 1.00775 8.6405 1.50094 8.20929 2.34854C7.91957 2.91855 7.42772 3.96558 7.04098 4.78488C6.82672 5.23765 6.36991 5.52737 5.86863 5.52737V5.52737C3.17896 5.52737 1 7.70632 1 10.3946V18.3936C1 21.0806 3.17896 23.2609 5.86863 23.2609H21.062C23.7504 23.2609 25.9293 21.0806 25.9293 18.3936V10.3946C25.9293 7.70632 23.7504 5.52737 21.062 5.52737Z" stroke="#717171" stroke-width="1.5" stroke-linecap="round" stroke-linejoin="round"></path><path fill-rule="evenodd" clip-rule="evenodd" d="M9.17812 13.915C9.17677 16.2773 11.1051 18.2096 13.4633 18.2083C15.8174 18.2056 17.7403 16.2813 17.7444 13.9245C17.7484 11.5582 15.8268 9.6299 13.466 9.6272C11.0916 9.6245 9.15925 11.5852 9.17812 13.915Z" stroke="#717171" stroke-width="1.5" stroke-linecap="round" stroke-linejoin="round"></path>
</svg>